<svg xmlns="http://www.w3.org/2000/svg" version="1.1" xmlns:xlink="http://www.w3.org/1999/xlink" xmlns:svgjs="http://svgjs.dev/svgjs" width="2000" height="2250" viewBox="0 0 2000 2250"><g transform="matrix(1,0,0,1,3.410605131648481e-13,0)"><svg viewBox="0 0 320 360" data-background-color="#7fdbff" preserveAspectRatio="xMidYMid meet" height="2250" width="2000" xmlns="http://www.w3.org/2000/svg" xmlns:xlink="http://www.w3.org/1999/xlink"><g id="tight-bounds" transform="matrix(1,0,0,1,0,0)"><svg viewBox="0 0 320 360" height="360" width="320"><g><svg></svg></g><g><svg viewBox="0 0 320 360" height="360" width="320"><g><path xmlns="http://www.w3.org/2000/svg" d="M20.961 227.22l3.726 4.658-1.863-6.056c-0.466-2.795-3.726 0.466-1.863 1.398M25.153 224.425c1.397 2.329 2.795 4.658 2.795 6.987 0 3.261 2.795 4.658 5.123 5.589-3.261-3.726-5.124-13.974-7.918-12.576M204.017 26.929c7.918 0 15.371-0.932 23.756 0.931 20.495 5.124 37.729 15.371 49.374 29.811l32.606 52.169c1.397 13.042 4.192 27.482 3.726 43.319 3.261 0 2.795-4.658 6.521-5.59-3.726 9.316-5.59 20.961-6.521 34.469-2.329-7.453 0-18.632 0.466-24.687-3.261 5.124-5.124 1.397-5.124-0.932 0.466-3.726-1.397-3.261-2.795-4.658-5.124-4.658-8.384-9.782-12.11-17.7 2.329-6.055 2.795-14.905-4.658-19.563-2.329-1.397-5.124-3.726-6.521-7.453-1.863-5.124-5.124-11.179-4.193-19.097 0.466-2.329-6.987 5.124-11.179 1.863-18.166-12.576-36.332-27.016-58.224-39.127-11.645 0-20.029-4.192-24.221-9.316-3.726-4.658-0.932-10.713 4.658-11.179 3.261 0 6.987-0.932 9.782 0.932 0.466-1.863 2.329-4.192 4.657-4.192M157.904 16.215l0.932 0.466c4.658 0.932 6.987 7.453 12.11 5.124 0 3.261 0.466 6.521-0.466 8.85-1.397 3.726-5.59 3.726-8.85 3.726-31.208-1.863-49.374 11.179-68.471 22.358-5.124 3.261-10.713 5.59-14.906 9.782-20.029 18.632-41.921 35.866-47.045 70.335l-4.192 38.195c-0.466 4.192-5.124 8.384-4.192 13.508l3.26 22.824c-3.261-3.261-5.124 0.932-4.192 2.795 0.466 1.397 2.329 6.055 5.124 1.863 3.726 6.987 7.453 20.495 12.576 26.55 15.837 18.632 36.332 35.4 53.101 52.169 4.192-0.932 7.453-0.932 8.384-3.727 1.397 2.795-1.397 5.59-3.726 6.056 7.453 4.658 15.837 8.85 27.016 9.781 14.44 0.932 27.948 3.261 40.524 6.522 6.521-1.863 13.042-2.795 20.029-3.261 2.329 0 3.726-3.726 6.521-4.658l0.466-4.658c2.795 4.192 2.329-1.397 0.466-4.192 3.261 2.795 4.192 5.124 5.589 6.987 0-1.397 3.726-6.521 3.727-0.466l0.931-6.055c1.397-0.932 1.863 5.124 3.261 0.931 1.397-4.192 4.192-0.932 6.987-2.329-0.932 1.863-0.466 5.59 2.794 3.261l3.727-3.261c2.329 5.59 6.055 3.261 7.918 2.329 20.495-13.042 40.99-28.413 60.553-43.784l-0.466 6.055 2.329-7.453c2.329 2.329 4.192 0.466 5.124-0.931 2.795-4.658 6.521-9.316 12.577-13.508-7.453 20.029-16.303 35.866-27.482 48.908l-4.658 5.59c0 3.261-0.932 7.453-4.658 7.918-1.863 0.466-5.59-0.932-8.384 1.863-1.397 1.863 3.261 5.59-0.466 2.795-3.261-2.329-6.521 0-10.248 0.932-2.795 0.932 1.863 3.726 2.795 5.589 0.932 1.863 1.863 3.726 1.398 6.056l-5.124-5.59c-6.055 3.261-9.782 9.316-14.906 13.974-2.329 1.863-1.397 5.124-1.397 7.918-3.261 0-6.987-0.932-8.85 0.932-1.397 1.863-0.932 4.658-0.932 7.453-4.658-0.466-5.124-7.453-9.315-6.056-4.192 0.932-8.85 1.397-12.577 3.727 2.795 5.59-4.658 2.329-3.726 3.26-6.987-4.192-13.042-7.453-20.495-4.658-15.837-5.124-35.4-2.795-49.84-0.931 0-2.329 0.466-4.658-0.466-5.124-0.932 2.329-3.726 1.397-3.26 1.397-8.85-6.055-17.7-9.782-27.016-14.905-8.384 0.932-16.303-3.261-18.632-5.59-6.521-6.055-13.974-2.795-20.029-4.192-13.042-3.261-17.7-16.769-19.098-26.084-0.932-4.658-4.658-6.521-6.055-6.056-6.055-19.563-15.371-37.263-22.824-55.429-1.863-4.658-1.397-9.316-1.397-14.44 2.329 0.932 4.658 0.466 4.192-2.794-2.329-15.371-7.918-27.016-13.974-38.195 3.261-15.837 3.726-34.469 11.179-48.443 6.521-12.576 18.632-19.098 27.016-29.811 2.795-3.726 2.795-8.85 5.59-12.11 9.316-9.316 18.632-19.098 28.879-27.482 4.658-3.726 10.247 0 17.234-1.397 2.329-8.384 11.645-15.837 20.495-13.508 3.726 0.932 11.179-8.85 13.508-9.782 3.726-1.397 1.863 3.726 1.863 6.987 8.85-6.987 20.961-10.713 32.14-14.906" fill="#ffffff" fill-rule="nonzero" stroke="none" stroke-width="1" stroke-linecap="butt" stroke-linejoin="miter" stroke-miterlimit="10" stroke-dasharray="" stroke-dashoffset="0" font-family="none" font-weight="none" font-size="none" text-anchor="none" style="mix-blend-mode: normal" data-fill-palette-color="tertiary"></path></g><g transform="matrix(1,0,0,1,64.00000000000001,101.06444906444906)"><svg viewBox="0 0 191.99999999999997 157.87110187110187" height="157.87110187110187" width="191.99999999999997"><g><svg viewBox="0 0 191.99999999999997 157.87110187110187" height="157.87110187110187" width="191.99999999999997"><g><svg viewBox="0 0 192.00000000000003 157.8711018711019" height="157.87110187110187" width="191.99999999999997"><g><svg viewBox="0 0 192.00000000000003 157.8711018711019" height="157.8711018711019" width="192.00000000000003"><g id="textblocktransform"><svg viewBox="0 0 192.00000000000003 157.8711018711019" height="157.8711018711019" width="192.00000000000003" id="textblock"><g><svg viewBox="0 0 192.00000000000003 157.8711018711019" height="157.8711018711019" width="192.00000000000003"><g transform="matrix(1,0,0,1,0,0)"><svg width="192.00000000000003" viewBox="1.2699999809265137 -37.5 46.970001220703125 38.619998931884766" height="157.8711018711019" data-palette-color="#ffffff"><path d="M22.75-7.67L22.75-7.67Q22.75-6.74 22.27-5.86L22.27-5.86Q21.78-5.03 19.97-3.91 18.16-2.78 15.97-1.78 13.77-0.78 11.72-0.07 9.67 0.63 8.69 0.63L8.69 0.63Q8.01 0.63 7.08 0.32 6.15 0 5.22-0.49 4.3-0.98 3.54-1.61 2.78-2.25 2.44-2.83L2.44-2.83Q2.25-3.17 2.08-4.2 1.9-5.22 1.78-6.59 1.66-7.96 1.56-9.5 1.46-11.04 1.39-12.43 1.32-13.82 1.29-14.89 1.27-15.97 1.27-16.46L1.27-16.46Q1.27-18.26 1.39-20.61 1.51-22.95 1.86-25.32 2.2-27.69 2.86-29.86 3.52-32.03 4.64-33.54L4.64-33.54Q4.98-33.98 6.01-34.47 7.03-34.96 8.42-35.4 9.81-35.84 11.43-36.23 13.04-36.62 14.53-36.89 16.02-37.16 17.24-37.33 18.46-37.5 19.09-37.5L19.09-37.5Q19.82-37.5 20.48-37.18 21.14-36.87 21.61-36.33 22.07-35.79 22.34-35.13 22.61-34.47 22.61-33.74L22.61-33.74Q22.61-33.11 22.44-32.67 22.27-32.23 21.92-31.69L21.92-31.69Q21.44-31.05 19.87-30.18 18.31-29.3 16.48-28.44 14.65-27.59 12.96-26.9 11.28-26.22 10.6-25.93L10.6-25.93Q10.4-24.8 10.18-23.66 9.96-22.51 9.86-21.34L9.86-21.34Q11.38-22.12 13.28-22.8 15.19-23.49 16.89-23.49L16.89-23.49Q20.36-23.49 20.36-20.07L20.36-20.07Q20.36-19.24 20.04-18.6 19.73-17.97 19.21-17.48 18.7-16.99 18.04-16.63 17.38-16.26 16.75-15.92L16.75-15.92Q15.19-15.09 13.48-14.48 11.77-13.87 10.06-13.28L10.06-13.28Q9.96-12.89 9.86-12.43 9.77-11.96 9.77-11.52L9.77-11.52Q9.77-10.84 9.86-10.16 9.96-9.47 10.06-8.79L10.06-8.79Q10.64-8.98 11.94-9.42 13.23-9.86 14.65-10.3 16.06-10.74 17.38-11.06 18.7-11.38 19.34-11.38L19.34-11.38Q20.07-11.38 20.7-11.06 21.34-10.74 21.78-10.23 22.22-9.72 22.49-9.03 22.75-8.35 22.75-7.67ZM48.24-6.74L48.24-6.74Q48.24-5.52 47.24-4.44 46.24-3.37 44.65-2.49 43.06-1.61 41.11-0.95 39.16-0.29 37.25 0.17 35.35 0.63 33.66 0.88 31.98 1.12 31 1.12L31 1.12Q30.08 1.12 29.03 0.95 27.98 0.78 27.29 0.2L27.29 0.2Q26.9-0.1 26.61-1.12 26.32-2.15 26.05-3.56 25.78-4.98 25.58-6.62 25.39-8.25 25.27-9.81 25.14-11.38 25.07-12.7 25-14.01 25-14.75L25-14.75Q25-15.97 25.07-17.7 25.14-19.43 25.29-21.41 25.44-23.39 25.68-25.44 25.93-27.49 26.24-29.32 26.56-31.15 27.02-32.62 27.49-34.08 28.02-34.91L28.02-34.91Q28.95-36.23 30.37-36.23L30.37-36.23Q31.35-36.23 32.03-35.57 32.71-34.91 33.13-33.86 33.54-32.81 33.76-31.52 33.98-30.22 34.08-28.96 34.18-27.69 34.18-26.61 34.18-25.54 34.18-24.9L34.18-24.9Q34.18-21.09 34.01-17.36 33.84-13.62 33.84-9.81L33.84-9.81 33.84-7.91Q36.03-8.59 38.62-9.2 41.21-9.81 43.55-9.81L43.55-9.81Q44.38-9.81 45.24-9.72 46.09-9.62 46.75-9.3 47.41-8.98 47.82-8.37 48.24-7.76 48.24-6.74Z" opacity="1" transform="matrix(1,0,0,1,0,0)" fill="#ffffff" class="wordmark-text-0" data-fill-palette-color="primary" id="text-0"></path></svg></g></svg></g></svg></g></svg></g><g></g></svg></g></svg></g></svg></g></svg></g><defs></defs></svg><rect width="320" height="360" fill="none" stroke="none" visibility="hidden"></rect></g></svg></g></svg>